{
    "accessors" : [
        {
            "bufferView" : 0, 
            "componentType" : 5123, 
            "count" : 4296, 
            "max" : [
                2863
            ], 
            "min" : [
                0
            ], 
            "type" : "SCALAR"
        }, 
        {
            "bufferView" : 1, 
            "componentType" : 5126, 
            "count" : 2864, 
            "max" : [
                4.632631778717041, 
                18.238096237182617, 
                4.65742301940918
            ], 
            "min" : [
                -4.446479797363281, 
                5.872725486755371, 
                -4.904984474182129
            ], 
            "type" : "VEC3"
        }, 
        {
            "bufferView" : 2, 
            "componentType" : 5126, 
            "count" : 2864, 
            "max" : [
                0.9765317440032959, 
                0.999721884727478, 
                0.95903080701828
            ], 
            "min" : [
                -0.971285879611969, 
                0.10962933301925659, 
                -0.9479313492774963
            ], 
            "type" : "VEC3"
        }, 
        {
            "bufferView" : 3, 
            "componentType" : 5126, 
            "count" : 2864, 
            "max" : [
                0.9998085498809814, 
                0.1700420081615448, 
                0.999738335609436, 
                -1.0
            ], 
            "min" : [
                -0.9994273781776428, 
                -0.16878436505794525, 
                -0.9995467066764832, 
                -1.0
            ], 
            "type" : "VEC4"
        }, 
        {
            "bufferView" : 4, 
            "componentType" : 5126, 
            "count" : 2864, 
            "max" : [
                1.0, 
                1.0
            ], 
            "min" : [
                0.0, 
                0.0
            ], 
            "type" : "VEC2"
        }, 
        {
            "bufferView" : 5, 
            "componentType" : 5123, 
            "count" : 15168, 
            "max" : [
                3314
            ], 
            "min" : [
                0
            ], 
            "type" : "SCALAR"
        }, 
        {
            "bufferView" : 6, 
            "componentType" : 5126, 
            "count" : 3315, 
            "max" : [
                3.9071524143218994, 
                17.30636215209961, 
                3.8799073696136475
            ], 
            "min" : [
                -3.7304739952087402, 
                -2.537395448598545e-05, 
                -4.017556667327881
            ], 
            "type" : "VEC3"
        }, 
        {
            "bufferView" : 7, 
            "componentType" : 5126, 
            "count" : 3315, 
            "max" : [
                0.999969482421875, 
                0.999969482421875, 
                0.99969482421875
            ], 
            "min" : [
                -0.999908447265625, 
                -0.999969482421875, 
                -0.9996337890625
            ], 
            "type" : "VEC3"
        }, 
        {
            "bufferView" : 8, 
            "componentType" : 5126, 
            "count" : 3315, 
            "max" : [
                0.9757702946662903, 
                0.999985933303833, 
                0.9720966815948486, 
                -1.0
            ], 
            "min" : [
                -0.9997082948684692, 
                -0.32160481810569763, 
                -0.9901792407035828, 
                -1.0
            ], 
            "type" : "VEC4"
        }, 
        {
            "bufferView" : 9, 
            "componentType" : 5126, 
            "count" : 3315, 
            "max" : [
                1.0, 
                1.0
            ], 
            "min" : [
                0.0, 
                0.0
            ], 
            "type" : "VEC2"
        }
    ], 
    "asset" : {
        "generator" : "Khronos Blender glTF 2.0 exporter", 
        "version" : "2.0"
    }, 
    "bufferViews" : [
        {
            "buffer" : 0, 
            "byteLength" : 8592, 
            "byteOffset" : 0, 
            "target" : 34963
        }, 
        {
            "buffer" : 0, 
            "byteLength" : 34368, 
            "byteOffset" : 8592, 
            "target" : 34962
        }, 
        {
            "buffer" : 0, 
            "byteLength" : 34368, 
            "byteOffset" : 42960, 
            "target" : 34962
        }, 
        {
            "buffer" : 0, 
            "byteLength" : 45824, 
            "byteOffset" : 77328, 
            "target" : 34962
        }, 
        {
            "buffer" : 0, 
            "byteLength" : 22912, 
            "byteOffset" : 123152, 
            "target" : 34962
        }, 
        {
            "buffer" : 0, 
            "byteLength" : 30336, 
            "byteOffset" : 146064, 
            "target" : 34963
        }, 
        {
            "buffer" : 0, 
            "byteLength" : 39780, 
            "byteOffset" : 176400, 
            "target" : 34962
        }, 
        {
            "buffer" : 0, 
            "byteLength" : 39780, 
            "byteOffset" : 216180, 
            "target" : 34962
        }, 
        {
            "buffer" : 0, 
            "byteLength" : 53040, 
            "byteOffset" : 255960, 
            "target" : 34962
        }, 
        {
            "buffer" : 0, 
            "byteLength" : 26520, 
            "byteOffset" : 309000, 
            "target" : 34962
        }
    ], 
    "buffers" : [
        {
            "byteLength" : 335520, 
            "uri" : "tree_4.bin"
        }
    ], 
    "materials" : [
        {
            "name" : "Material.002", 
            "pbrMetallicRoughness" : {
                "baseColorFactor" : [
                    0.26110010536164197, 
                    0.08219504478864437, 
                    0.07143934475540137, 
                    1.0
                ], 
                "metallicFactor" : 0.0
            }
        }, 
        {
            "name" : "Material.003", 
            "pbrMetallicRoughness" : {
                "baseColorFactor" : [
                    0.03172234344068681, 
                    0.25483084104703124, 
                    0.11071338818540255, 
                    1.0
                ], 
                "metallicFactor" : 0.0
            }
        }
    ], 
    "meshes" : [
        {
            "name" : "leaves.001", 
            "primitives" : [
                {
                    "attributes" : {
                        "NORMAL" : 2, 
                        "POSITION" : 1, 
                        "TANGENT" : 3, 
                        "TEXCOORD_0" : 4
                    }, 
                    "indices" : 0, 
                    "material" : 1
                }
            ]
        }, 
        {
            "name" : "tree.001", 
            "primitives" : [
                {
                    "attributes" : {
                        "NORMAL" : 7, 
                        "POSITION" : 6, 
                        "TANGENT" : 8, 
                        "TEXCOORD_0" : 9
                    }, 
                    "indices" : 5, 
                    "material" : 0
                }
            ]
        }
    ], 
    "nodes" : [
        {
            "mesh" : 0, 
            "name" : "leaves.001"
        }, 
        {
            "children" : [
                0
            ], 
            "mesh" : 1, 
            "name" : "tree.001", 
            "translation" : [
                0.0, 
                0.0, 
                0.06780703365802765
            ]
        }
    ], 
    "scene" : 0, 
    "scenes" : [
        {
            "name" : "Scene", 
            "nodes" : [
                1
            ]
        }
    ]
}
