<?xml version="1.0" encoding="UTF-8" standalone="no"?>
<svg
   xmlns:dc="http://purl.org/dc/elements/1.1/"
   xmlns:cc="http://creativecommons.org/ns#"
   xmlns:rdf="http://www.w3.org/1999/02/22-rdf-syntax-ns#"
   xmlns:svg="http://www.w3.org/2000/svg"
   xmlns="http://www.w3.org/2000/svg"
   xmlns:sodipodi="http://sodipodi.sourceforge.net/DTD/sodipodi-0.dtd"
   xmlns:inkscape="http://www.inkscape.org/namespaces/inkscape"
   width="800"
   height="800"
   viewBox="0 0 8 8"
   version="1.1"
   id="svg6"
   sodipodi:docname="Checkerboard_6x6.svg"
   inkscape:version="0.92.2 5c3e80d, 2017-08-06">
  <metadata
     id="metadata12">
    <rdf:RDF>
      <cc:Work
         rdf:about="">
        <dc:format>image/svg+xml</dc:format>
        <dc:type
           rdf:resource="http://purl.org/dc/dcmitype/StillImage" />
        <dc:title></dc:title>
      </cc:Work>
    </rdf:RDF>
  </metadata>
  <defs
     id="defs10" />
  <sodipodi:namedview
     pagecolor="#ffffff"
     bordercolor="#666666"
     borderopacity="1"
     objecttolerance="10"
     gridtolerance="10"
     guidetolerance="10"
     inkscape:pageopacity="0"
     inkscape:pageshadow="2"
     inkscape:window-width="1920"
     inkscape:window-height="1028"
     id="namedview8"
     showgrid="false"
     inkscape:zoom="0.66381117"
     inkscape:cx="43.079514"
     inkscape:cy="320.52802"
     inkscape:window-x="0"
     inkscape:window-y="0"
     inkscape:window-maximized="1"
     inkscape:current-layer="svg6" />
  <rect
     width="2"
     height="1.9999999"
     id="rect2"
     x="0"
     y="6"
     style="stroke-width:0.39999998" />
  <path
     d="M 0,5.5 V 8 H 0.5 V 5.5 Z m 1,0 V 8 H 1.5 V 5.5 Z m 1,0 V 8 H 2.5 V 5.5 Z m -2,0 H 2.5 V 6 H 0 Z m 0,1 H 2.5 V 7 H 0 Z m 0,1 H 2.5 V 8 H 0 Z"
     id="path4"
     inkscape:connector-curvature="0"
     style="fill:#ffffff;fill-rule:evenodd;stroke-width:0.5" />
  <rect
     width="2"
     height="1.9999999"
     id="rect2-6"
     x="2"
     y="6"
     style="stroke-width:0.39999998" />
  <path
     d="M 2,5.5 V 8 H 2.5 V 5.5 Z m 1,0 V 8 H 3.5 V 5.5 Z m 1,0 V 8 H 4.5 V 5.5 Z m -2,0 H 4.5 V 6 H 2 Z m 0,1 H 4.5 V 7 H 2 Z m 0,1 H 4.5 V 8 H 2 Z"
     id="path4-7"
     inkscape:connector-curvature="0"
     style="fill:#ffffff;fill-rule:evenodd;stroke-width:0.5" />
  <rect
     width="2"
     height="1.9999999"
     id="rect2-5"
     x="1.9999998"
     y="4"
     style="stroke-width:0.39999998" />
  <path
     d="M 2,3.5 V 6 H 2.5 V 3.5 Z m 1,0 V 6 H 3.5 V 3.5 Z m 1,0 V 6 H 4.5 V 3.5 Z m -2,0 H 4.5 V 4 H 2 Z m 0,1 H 4.5 V 5 H 2 Z m 0,1 H 4.5 V 6 H 2 Z"
     id="path4-3"
     inkscape:connector-curvature="0"
     style="fill:#ffffff;fill-rule:evenodd;stroke-width:0.5" />
  <rect
     width="2"
     height="1.9999999"
     id="rect2-56"
     x="-4.7683716e-07"
     y="4"
     style="stroke-width:0.39999998" />
  <path
     d="M -4.7978821e-7,3.5 V 6 H 0.49999952 V 3.5 Z M 0.99999952,3.5 V 6 H 1.4999995 V 3.5 Z m 0.99999998,0 V 6 h 0.5 V 3.5 Z M -4.7978821e-7,3.5 H 2.4999995 V 4 H -4.7978821e-7 Z m 0,1 H 2.4999995 V 5 H -4.7978821e-7 Z m 0,1 H 2.4999995 V 6 H -4.7978821e-7 Z"
     id="path4-2"
     inkscape:connector-curvature="0"
     style="fill:#ffffff;fill-rule:evenodd;stroke-width:0.5" />
  <rect
     width="2"
     height="1.9999999"
     id="rect2-9"
     x="4"
     y="6"
     style="stroke-width:0.39999998" />
  <path
     d="M 4,5.5 V 8 H 4.5 V 5.5 Z m 1,0 V 8 H 5.5 V 5.5 Z m 1,0 V 8 H 6.5 V 5.5 Z m -2,0 H 6.5 V 6 H 4 Z m 0,1 H 6.5 V 7 H 4 Z m 0,1 H 6.5 V 8 H 4 Z"
     id="path4-1"
     inkscape:connector-curvature="0"
     style="fill:#ffffff;fill-rule:evenodd;stroke-width:0.5" />
  <rect
     width="2"
     height="1.9999999"
     id="rect2-6-2"
     x="6"
     y="6"
     style="stroke-width:0.39999998" />
  <path
     d="M 6,5.5 V 8 H 6.5 V 5.5 Z m 1,0 V 8 H 7.5 V 5.5 Z m 1,0 V 8 H 8.5 V 5.5 Z m -2,0 H 8.5 V 6 H 6 Z m 0,1 H 8.5 V 7 H 6 Z m 0,1 H 8.5 V 8 H 6 Z"
     id="path4-7-7"
     inkscape:connector-curvature="0"
     style="fill:#ffffff;fill-rule:evenodd;stroke-width:0.5" />
  <rect
     width="2"
     height="1.9999999"
     id="rect2-5-0"
     x="6"
     y="3.9999998"
     style="stroke-width:0.39999998" />
  <path
     d="M 6,3.5 V 6 H 6.5 V 3.5 Z m 1,0 V 6 H 7.5 V 3.5 Z m 1,0 V 6 H 8.5 V 3.5 Z m -2,0 H 8.5 V 4 H 6 Z m 0,1 H 8.5 V 5 H 6 Z m 0,1 H 8.5 V 6 H 6 Z"
     id="path4-3-9"
     inkscape:connector-curvature="0"
     style="fill:#ffffff;fill-rule:evenodd;stroke-width:0.5" />
  <rect
     width="2"
     height="1.9999999"
     id="rect2-56-3"
     x="3.9999995"
     y="3.9999998"
     style="stroke-width:0.39999998" />
  <path
     d="M 3.9999995,3.5 V 6 h 0.5 V 3.5 Z m 1,0 V 6 h 0.5 V 3.5 Z m 1,0 V 6 h 0.5 V 3.5 Z m -2,0 h 2.5 V 4 h -2.5 z m 0,1 h 2.5 V 5 h -2.5 z m 0,1 h 2.5 V 6 h -2.5 z"
     id="path4-2-6"
     inkscape:connector-curvature="0"
     style="fill:#ffffff;fill-rule:evenodd;stroke-width:0.5" />
  <rect
     width="2"
     height="1.9999999"
     id="rect2-0"
     x="-5.4891149e-07"
     y="2"
     style="stroke-width:0.39999998" />
  <path
     d="M -5.4e-7,1.5 V 4 h 0.5 V 1.5 Z m 1.00000004,0 V 4 h 0.5 V 1.5 Z m 1,0 V 4 h 0.5 V 1.5 Z M -5.4e-7,1.5 H 2.4999995 V 2 H -5.4e-7 Z m 0,1 H 2.4999995 V 3 H -5.4e-7 Z m 0,1 H 2.4999995 V 4 H -5.4e-7 Z"
     id="path4-6"
     inkscape:connector-curvature="0"
     style="fill:#ffffff;fill-rule:evenodd;stroke-width:0.5" />
  <rect
     width="2"
     height="1.9999999"
     id="rect2-6-26"
     x="1.9999994"
     y="2"
     style="stroke-width:0.39999998" />
  <path
     d="M 1.9999995,1.5 V 4 h 0.5 V 1.5 Z m 1,0 V 4 h 0.5 V 1.5 Z m 1,0 V 4 h 0.5 V 1.5 Z m -2,0 h 2.5 V 2 h -2.5 z m 0,1 h 2.5 V 3 h -2.5 z m 0,1 h 2.5 V 4 h -2.5 z"
     id="path4-7-1"
     inkscape:connector-curvature="0"
     style="fill:#ffffff;fill-rule:evenodd;stroke-width:0.5" />
  <rect
     width="2"
     height="1.9999999"
     id="rect2-5-8"
     x="1.9999992"
     y="3.5064698e-08"
     style="stroke-width:0.39999998" />
  <path
     d="M 1.9999995,-0.5 V 2 h 0.5 v -2.5 z m 1,0 V 2 h 0.5 v -2.5 z m 1,0 V 2 h 0.5 v -2.5 z m -2,0 h 2.5 V 0 h -2.5 z m 0,1 h 2.5 V 1 h -2.5 z m 0,1 h 2.5 V 2 h -2.5 z"
     id="path4-3-7"
     inkscape:connector-curvature="0"
     style="fill:#ffffff;fill-rule:evenodd;stroke-width:0.5" />
  <rect
     width="2"
     height="1.9999999"
     id="rect2-56-9"
     x="-1.0257486e-06"
     y="3.5064698e-08"
     style="stroke-width:0.39999998" />
  <path
     d="M -1.02e-6,-0.5 V 2 h 0.5 v -2.5 z m 1.00000002,0 V 2 h 0.5 v -2.5 z m 1,0 V 2 h 0.5 V -0.5 Z M -1.02e-6,-0.5 H 2.499999 V 0 H -1.02e-6 Z m 0,1 H 2.499999 V 1 H -1.02e-6 Z m 0,1 H 2.499999 V 2 H -1.02e-6 Z"
     id="path4-2-2"
     inkscape:connector-curvature="0"
     style="fill:#ffffff;fill-rule:evenodd;stroke-width:0.5" />
  <rect
     width="2"
     height="1.9999999"
     id="rect2-02"
     x="4"
     y="2"
     style="stroke-width:0.39999998" />
  <path
     d="M 4,1.5 V 4 H 4.5 V 1.5 Z m 1,0 V 4 H 5.5 V 1.5 Z m 1,0 V 4 H 6.5 V 1.5 Z m -2,0 H 6.5 V 2 H 4 Z m 0,1 H 6.5 V 3 H 4 Z m 0,1 H 6.5 V 4 H 4 Z"
     id="path4-37"
     inkscape:connector-curvature="0"
     style="fill:#ffffff;fill-rule:evenodd;stroke-width:0.5" />
  <rect
     width="2"
     height="1.9999999"
     id="rect2-6-5"
     x="6"
     y="2"
     style="stroke-width:0.39999998" />
  <path
     d="M 6,1.5 V 4 H 6.5 V 1.5 Z m 1,0 V 4 H 7.5 V 1.5 Z m 1,0 V 4 H 8.5 V 1.5 Z m -2,0 H 8.5 V 2 H 6 Z m 0,1 H 8.5 V 3 H 6 Z m 0,1 H 8.5 V 4 H 6 Z"
     id="path4-7-9"
     inkscape:connector-curvature="0"
     style="fill:#ffffff;fill-rule:evenodd;stroke-width:0.5" />
  <rect
     width="2"
     height="1.9999999"
     id="rect2-5-2"
     x="5.9999995"
     y="2.1178437e-08"
     style="stroke-width:0.39999998" />
  <path
     d="M 6,-0.49999999 V 2 h 0.5 v -2.49999999 z m 1,0 V 2 h 0.5 v -2.49999999 z m 1,0 V 2 h 0.5 v -2.49999999 z m -2,0 h 2.5 v 0.5 H 6 Z m 0,1 H 8.5 V 1 H 6 Z M 6,1.5 H 8.5 V 2 H 6 Z"
     id="path4-3-2"
     inkscape:connector-curvature="0"
     style="fill:#ffffff;fill-rule:evenodd;stroke-width:0.5" />
  <rect
     width="2"
     height="1.9999999"
     id="rect2-56-8"
     x="3.9999995"
     y="2.1178437e-08"
     style="stroke-width:0.39999998" />
  <path
     d="M 3.9999995,-0.49999999 V 2 h 0.5 v -2.49999999 z m 1,0 V 2 h 0.5 v -2.49999999 z m 1,0 V 2 h 0.5 v -2.49999999 z m -2,0 h 2.5 v 0.5 h -2.5 z m 0,1 h 2.5 V 1 h -2.5 z m 0,0.99999999 h 2.5 V 2 h -2.5 z"
     id="path4-2-9"
     inkscape:connector-curvature="0"
     style="fill:#ffffff;fill-rule:evenodd;stroke-width:0.5" />
</svg>
